<svg width="189.94mm" height="33.976mm" version="1.1" viewBox="0 0 189.94 33.976" xmlns="http://www.w3.org/2000/svg"><g transform="translate(-1120.5 -247.65)"><g transform="matrix(.74769 0 0 .74769 166.32 82.406)" fill="#8a4dfd"><path d="m1301.3 221.01c-5.7079 1e-3 -10.726 3.5711-12.711 8.7833-0.9412-0.31441-1.9272-0.49689-2.9337-0.50087v0h-0.013c-5.2203-4e-5 -9.4848 4.2644-9.4848 9.4848 0 1.734 0.638 3.8066 1.9894 5.5918s3.4366 3.2713 6.2808 3.7384c0.4013 0.0659 0.686 0.24536 0.8479 0.4667 0.1618 0.22132 0.227 0.48971 0.1268 0.8621l-0.1083 0.40624c-0.066 0.24856-0.4907 0.63375-0.8291 0.73949-1.5272 0.47731-2.7917 1.703-3.2335 3.3521-0.6849 2.5563 0.8528 5.2195 3.409 5.9044 2.5565 0.68494 5.2194-0.85274 5.9044-3.4091 0.4419-1.6491-0.041-3.3427-1.1243-4.5196-0.2402-0.26074-0.4147-0.80646-0.3481-1.055l0.3096-1.156c0.2277-0.8497 0.9925-1.4366 1.8721-1.4366h6.1483c0.626 0 1.063 0.56938 0.9011 1.1741l-0.973 3.6312c-0.066 0.24856-0.491 0.63383-0.8294 0.73956-1.5271 0.47729-2.7913 1.703-3.2332 3.3521-0.6851 2.5563 0.8525 5.2195 3.4089 5.9045 2.5563 0.68497 5.2194-0.85251 5.9044-3.4088 0.4418-1.649-0.04-3.3427-1.1241-4.5196-0.2402-0.26074-0.415-0.8067-0.3484-1.0553l1.1741-4.3811c0.2277-0.8497 0.9925-1.4366 1.8721-1.4366h6.1482c0.6261 0 1.0628 0.56938 0.9008 1.1741l-1.8372 6.8563c-0.066 0.24856-0.4908 0.63401-0.8291 0.73975-1.5273 0.47727-2.7918 1.7028-3.2335 3.3519-0.685 2.5563 0.8527 5.2197 3.4091 5.9046 2.5564 0.68498 5.2196-0.85275 5.9043-3.409 0.442-1.6491-0.04-3.3427-1.124-4.5196-0.2402-0.26074-0.4149-0.80643-0.3485-1.055l2.0384-7.6073c0.1986-0.74131 1.1257-1.4639 1.9551-1.6199 4.7913-0.90144 8.4652-5.0196 8.6856-10.01 0.013-0.27401 0.013-0.67624 0-0.95023-0.2499-5.6575-4.9435-10.194-10.659-10.194v0 0c-0.8487 3e-3 -1.6887 0.12242-2.51 0.32249-2.4856-3.8301-6.7244-6.2238-11.354-6.2354h-0.013zm0 3.3097v0c3.8672 0.0106 7.396 2.1749 9.1571 5.6178 0.3842 0.75053 1.2837 1.0936 2.07 0.78969 0.8442-0.32632 1.7414-0.49414 2.6463-0.49505 4.0862 2e-5 7.3597 3.2734 7.3597 7.3595 0 3.8842-2.9628 7.0265-6.7627 7.3293-0.208 0.0166-0.4054 0.0302-0.597 0.0302h-29.523c-3.4323 0-6.1749-2.7425-6.1749-6.1747 0-3.4307 2.7406-6.1724 6.1708-6.1747v0c1.101 5e-3 2.1801 0.30376 3.1265 0.86612 0.9562 0.56797 2.2204 0.021 2.4611-1.0648 1.0484-4.7303 5.2199-8.0806 10.064-8.0839zm10.022 8.6567c-2.392 0-4.3606 1.924-4.4334 4.3003-0.013 0.30423 0.2495 0.54806 0.5527 0.52054l0.3004-0.0275 0.3049-0.0276 0.6486-0.059 0.3027-0.0275 0.3066-0.028c0.2355-0.0214 0.4248-0.20266 0.4565-0.43694 0.1057-0.78066 0.7401-1.3558 1.561-1.3557 0.719-3e-5 1.293 0.44502 1.4985 1.0766 0.073 0.22502 0.2923 0.36948 0.5279 0.34807l0.3047-0.0276 0.3008-0.0275 0.65-0.059 0.3035-0.0276 0.3012-0.0273c0.3035-0.0276 0.5141-0.31471 0.4496-0.61245-0.4328-1.9976-2.2188-3.5017-4.3362-3.5017zm-9.9317 0.90359c-2.3917 0-4.3602 1.9241-4.4331 4.3002-0.013 0.30427 0.2496 0.54814 0.5526 0.52061l0.3003-0.0275 0.3047-0.0276 0.6487-0.059 0.3028-0.0275 0.3065-0.028c0.2355-0.0214 0.4248-0.20263 0.4567-0.43686 0.1056-0.78069 0.7399-1.356 1.5608-1.356 0.7191 0 1.2929 0.44522 1.4983 1.0768 0.073 0.2251 0.2924 0.36956 0.5283 0.34806l0.3042-0.0276 0.3011-0.0275 0.6499-0.059 0.3037-0.0276 0.301-0.0273c0.3035-0.0276 0.5141-0.31472 0.4497-0.6125-0.4329-1.9976-2.2186-3.5015-4.3361-3.5016zm-15.596 18.775v0c0.2495-9e-3 0.5043 0.0194 0.7566 0.087 1.3475 0.36104 2.147 1.7454 1.786 3.0929-0.3611 1.3474-1.7457 2.1469-3.0931 1.7859-1.3475-0.36107-2.1467-1.7456-1.7858-3.0931 0.2935-1.0948 1.2565-1.8346 2.3362-1.8726zm12.036 3.2251v0c0.2496-9e-3 0.5043 0.0194 0.7566 0.087 1.3475 0.36104 2.1467 1.7454 1.7857 3.0928-0.3611 1.3474-1.7454 2.147-3.093 1.7859-1.3474-0.36107-2.1469-1.7457-1.7857-3.0931 0.2932-1.0947 1.2563-1.8348 2.3359-1.8728zm12.036 3.2251v0c0.2496-9e-3 0.5046 0.0197 0.757 0.0872 1.3473 0.36104 2.1466 1.7454 1.7855 3.0928-0.361 1.3474-1.7452 2.1469-3.0928 1.7859-1.3475-0.36107-2.147-1.7456-1.7859-3.0931 0.2933-1.0947 1.2564-1.8348 2.336-1.8728z" stroke-linecap="round" stroke-linejoin="round" stroke-width=".094745" style="paint-order:markers stroke fill"/><path transform="matrix(1.0057 0 0 .99429 -5.0155e-6 8.3591e-8)" d="m1329.2 251.37q-5.4647 0-5.4647-5.1975 0-3.9346 1.3601-6.8491 1.4816-3.206 4.2261-4.4203 1.4572-0.63148 2.9388-0.63148 1.4815 0 2.7445 0.24288 1.2629 0.24287 1.943 0.48575l0.6558 0.24288-0.7772 2.4288q-2.4045-0.48576-4.5418-0.48576-1.3116 0-2.3559 0.87436-1.0201 0.85006-1.5787 2.2345-1.1658 2.7931-1.1658 5.9019 0 2.2588 2.4287 2.2588l1.5302-0.12144 0.85-3.6674h-1.5544l0.6558-2.7688h4.8818l-2.0645 8.8407q-1.6515 0.63148-4.7118 0.63148zm7.1892-0.29145 2.7931-12.144h3.2302l-0.4372 1.7487q0.7287-0.65577 1.8702-1.2872 1.1415-0.65576 1.943-0.75291l-0.9472 3.4003q-1.1658 0.36432-2.8417 1.1172l-0.5829 0.26717-1.773 7.6506zm14.864-12.411q4.7847 0 4.7847 4.5904 0 1.9673-0.6558 3.7646t-2.113 3.0845q-1.433 1.263-3.376 1.263-4.7847 0-4.7847-4.5904 0-1.943 0.7044-3.7646 0.7043-1.8216 2.1373-3.0845 1.4572-1.263 3.3031-1.263zm-1.3601 9.9336q1.3115 0 2.113-1.6516 0.8015-1.6758 0.8015-3.7403 0-1.773-1.5544-1.773-1.3115 0-2.113 1.6758-0.8015 1.6516-0.8015 3.716 0 1.773 1.5544 1.773zm10.395 2.7688q-2.9631 0-2.9631-3.4246 0-0.94722 0.51-3.0602l1.3602-5.9505h3.2545l-1.3115 5.7076q-0.4372 1.8216-0.4372 2.5259t0.1943 1.0444q0.2186 0.34003 0.68 0.34003 0.8258 0 2.0402-1.0929l0.3886-0.36432 1.8701-8.1606h3.2546l-2.7931 12.144h-3.1088l0.1457-1.1901q-0.5586 0.55861-1.4815 1.0201-0.8987 0.46146-1.603 0.46146zm17.536-12.727q1.773 0 2.6474 1.1415 0.8744 1.1172 0.8744 3.1331 0 1.9916-0.6801 3.9103-0.6558 1.8944-2.0887 3.206-1.433 1.3115-3.3517 1.3115-1.093 0-2.4531-0.36431l-0.4857-0.14573-1.2387 5.3433h-3.206l3.9589-17.244h3.1817l-0.2429 1.263q0.6072-0.60719 1.4816-1.0687 0.8986-0.48575 1.6029-0.48575zm-1.02 2.7688q-0.3886 0-1.093 0.43717-0.68 0.43718-1.1658 0.87436l-0.4857 0.43717-1.1658 5.0761q1.4086 0.34003 2.283 0.34003 0.8986 0 1.5544-0.94722 0.6801-0.9715 0.9958-2.2345 0.3157-1.263 0.3157-2.4288 0-1.5544-1.2386-1.5544zm8.8892 5.8533q0 0.60719 0.4858 0.9715 0.51 0.36432 1.2629 0.36432 1.6759 0 3.4246-0.24288l0.6315-0.0729-0.3643 2.4045q-2.2588 0.68005-4.469 0.68005-2.2101 0-3.2302-0.99579-0.9958-0.99579-0.9958-2.9145t0.3886-3.4246 1.1415-2.7202q0.7772-1.2144 2.0888-1.9187 1.3358-0.72862 3.0359-0.72862 4.2503 0 4.2503 3.6188 0 2.3073-1.5544 3.1817-1.5544 0.87436-5.1732 0.87436h-0.8501q-0.073 0.29145-0.073 0.92293zm1.433-3.3274q1.6759 0 2.3316-0.36432 0.6801-0.36431 0.6801-1.2387 0-1.0444-1.2144-1.0444-2.1616 0-2.7931 2.6474zm19.503-6.8005q-1.0686 0-1.7001 0.60719-0.6072 0.5829-0.6072 1.4087t0.3886 1.2144q0.3886 0.36431 2.1373 1.1415 1.7487 0.7772 2.3802 1.6516 0.6558 0.85007 0.6558 2.5016 0 2.7445-1.7002 4.226-1.6758 1.4815-4.5417 1.4815-1.1416 0-2.4045-0.24287-1.263-0.24288-1.9673-0.48576l-0.6801-0.26716 0.5587-2.4045q2.7445 0.48575 4.2989 0.48575 1.5787 0 2.3073-0.53433 0.7286-0.55861 0.7286-1.8701 0-0.70434-0.4372-1.0687-0.4129-0.3886-2.0644-1.1415-1.6516-0.75292-2.3559-1.6516-0.7044-0.89864-0.7044-2.5016 0-2.3559 1.5302-3.886 1.5301-1.5301 4.0803-1.5301 1.1658 0 2.4287 0.24288 1.2873 0.21859 1.9673 0.43717l0.6801 0.24288-0.6072 2.3802q-2.6716-0.43717-4.3718-0.43717zm12.921 1.5058q1.773 0 2.6473 1.1415 0.8744 1.1172 0.8744 3.1331 0 1.9916-0.6801 3.9103-0.6558 1.8944-2.0887 3.206-1.433 1.3115-3.3517 1.3115-1.093 0-2.4531-0.36431l-0.4857-0.14573-1.2387 5.3433h-3.2059l3.9588-17.244h3.1817l-0.2429 1.263q0.6072-0.60719 1.4816-1.0687 0.8986-0.48575 1.603-0.48575zm-1.0201 2.7688q-0.3886 0-1.093 0.43717-0.68 0.43718-1.1658 0.87436l-0.4857 0.43717-1.1658 5.0761q1.4087 0.34003 2.283 0.34003 0.8987 0 1.5544-0.94722 0.6801-0.9715 0.9958-2.2345 0.3157-1.263 0.3157-2.4288 0-1.5544-1.2386-1.5544zm8.8893 5.8533q0 0.60719 0.4857 0.9715 0.51 0.36432 1.263 0.36432 1.6758 0 3.4245-0.24288l0.6315-0.0729-0.3643 2.4045q-2.2588 0.68005-4.4689 0.68005-2.2102 0-3.2303-0.99579-0.9958-0.99579-0.9958-2.9145t0.3886-3.4246 1.1415-2.7202q0.7772-1.2144 2.0888-1.9187 1.3358-0.72862 3.0359-0.72862 4.2503 0 4.2503 3.6188 0 2.3073-1.5544 3.1817-1.5544 0.87436-5.1732 0.87436h-0.8501q-0.073 0.29145-0.073 0.92293zm1.4329-3.3274q1.6759 0 2.3316-0.36432 0.6801-0.36431 0.6801-1.2387 0-1.0444-1.2144-1.0444-2.1616 0-2.7931 2.6474zm10.128 3.3274q0 0.60719 0.4858 0.9715 0.51 0.36432 1.2629 0.36432 1.6759 0 3.4246-0.24288l0.6315-0.0729-0.3643 2.4045q-2.2588 0.68005-4.469 0.68005-2.2101 0-3.2302-0.99579-0.9958-0.99579-0.9958-2.9145t0.3886-3.4246 1.1415-2.7202q0.7772-1.2144 2.0888-1.9187 1.3358-0.72862 3.0359-0.72862 4.2503 0 4.2503 3.6188 0 2.3073-1.5544 3.1817-1.5544 0.87436-5.1732 0.87436h-0.8501q-0.073 0.29145-0.073 0.92293zm1.433-3.3274q1.6759 0 2.3316-0.36432 0.6801-0.36431 0.6801-1.2387 0-1.0444-1.2144-1.0444-2.1616 0-2.7931 2.6474zm10.346 7.432q-1.7244 0-2.623-1.1172-0.8744-1.1172-0.8744-3.1817 0-2.0644 0.6558-3.9346 0.68-1.8702 2.113-3.1574 1.433-1.3115 3.3517-1.3115 0.8258 0 2.4287 0.3886l0.4858 0.12144 1.1901-5.1004h3.2545l-3.9346 17.001h-3.1574l0.2186-1.263q-0.4857 0.55861-1.4086 1.0686-0.923 0.48575-1.7002 0.48575zm4.9547-9.5936q-1.4087-0.34003-2.3073-0.34003-0.8744 0-1.5544 0.97151-0.6558 0.94721-0.9715 2.2102-0.3158 1.263-0.3158 2.4288 0 1.5544 1.2387 1.5544 0.3886 0 1.0686-0.43718 0.7044-0.43718 1.1901-0.87436l0.4858-0.43717zm15.155 9.5936q-4.9789 0-4.9789-4.7847 0-3.546 1.1901-6.5334 0.6557-1.6516 1.603-2.9145 0.9472-1.2872 2.4044-2.0644 1.4816-0.80149 3.3031-0.80149 1.773 0 3.5703 0.53433l0.5829 0.1943-0.7772 2.4773q-1.5058-0.29145-3.4974-0.29145-1.5058 0-2.6716 1.3358-1.1415 1.3358-1.7002 3.4003-0.5586 2.0644-0.5586 4.4203 0 2.113 1.9673 2.113 1.8702 0 3.376-0.24288l0.5586-0.0729-0.2672 2.5988q-2.2587 0.63148-4.1046 0.63148zm5.9505-0.29145 3.9103-17.001h3.2545l-3.9103 17.001zm12.678-12.411q4.7847 0 4.7847 4.5904 0 1.9673-0.6558 3.7646t-2.113 3.0845q-1.433 1.263-3.376 1.263-4.7847 0-4.7847-4.5904 0-1.943 0.7044-3.7646 0.7043-1.8216 2.1373-3.0845 1.4572-1.263 3.3031-1.263zm-1.3601 9.9336q1.3115 0 2.113-1.6516 0.8015-1.6758 0.8015-3.7403 0-1.773-1.5544-1.773-1.3115 0-2.113 1.6758-0.8015 1.6516-0.8015 3.716 0 1.773 1.5544 1.773zm10.395 2.7688q-2.9631 0-2.9631-3.4246 0-0.94722 0.51-3.0602l1.3601-5.9505h3.2546l-1.3115 5.7076q-0.4372 1.8216-0.4372 2.5259t0.1943 1.0444q0.2186 0.34003 0.68 0.34003 0.8258 0 2.0402-1.0929l0.3886-0.36432 1.8701-8.1606h3.2546l-2.7931 12.144h-3.1088l0.1457-1.1901q-0.5586 0.55861-1.4815 1.0201-0.8987 0.46146-1.603 0.46146zm12.824 0q-1.7245 0-2.6231-1.1172-0.8744-1.1172-0.8744-3.1817 0-2.0644 0.6558-3.9346 0.6801-1.8702 2.113-3.1574 1.433-1.3115 3.3517-1.3115 0.8258 0 2.4288 0.3886l0.4857 0.12144 1.1901-5.1004h3.2546l-3.9346 17.001h-3.1574l0.2186-1.263q-0.4858 0.55861-1.4087 1.0686-0.9229 0.48575-1.7001 0.48575zm4.9546-9.5936q-1.4087-0.34003-2.3073-0.34003-0.8744 0-1.5544 0.97151-0.6558 0.94721-0.9715 2.2102-0.3157 1.263-0.3157 2.4288 0 1.5544 1.2386 1.5544 0.3886 0 1.0687-0.43718 0.7043-0.43718 1.1901-0.87436l0.4857-0.43717z" aria-label="Groupe Speed Cloud"/></g></g></svg>
